<svg height="166" viewBox="0 0 250 166" width="250" xmlns="http://www.w3.org/2000/svg"><g fill="none" fill-rule="evenodd" transform="translate(1 28.27634)"><path d="m170.028179 117.468903c23.143754-.268648 46.286722-.114599 69.428902.462147 1.990821.049643 4.056661.1134 5.814745.632227s3.111068 1.631823 2.630058 2.701079c-9.033947.262987-18.077221.344246-27.129822.243779-1.97143.950256-4.135801 2.381508-2.924211 3.663042.838375.886775 2.907846 1.150774 4.71762 1.152851 3.277833.003765 6.568851-.525688 9.798182-.215054 3.229331.310635 6.451633 1.982065 5.505641 3.71725-.718379 1.317684-3.44378 1.969966-5.924011 2.086442-2.480232.116476-5.019823-.125728-7.444158.186307-2.303858.296524-4.299889 1.067028-6.45605 1.60489-3.401203.84844-7.171511 1.110591-10.881 1.333601-28.48374 1.712402-57.203685 1.698814-85.855299 1.683305-11.599368-.006281-23.3562868-.023568-34.5572755-1.689914-6.3847921-.949853-12.5031057-2.424878-18.9684519-3.190244-7.7227728-.914218-15.7043846-.790125-23.602034-.762725-13.8645844.048101-27.717477-.214822-41.55867793-.788772-1.0300091-.042736-2.2943186-.187478-2.57228947-.737497-.32440096-.641895.99215128-1.142771 2.10500429-1.398925 6.30588646-1.43636 12.71775371-2.377525 19.17510561-2.814617 3.2702857-.226293 6.6402321-.341487 9.6480412-1.086439 3.0078091-.744951 5.635541-2.307211 5.6073029-4.129376-.0086135-.555854-.2469594-1.15049.2244537-1.64147.6259754-.651963 2.1661334-.801536 3.4949595-.872615 14.7308379-.78796 29.5419572-1.116889 44.339645-.984712 5.2052495.046495 10.4319504.149431 15.6003396-.195596 4.234826-.282704 8.38272-.863132 12.556274-1.350424 5.602134-.654092 29.982483-4.042534 33.539013-1.29313 2.662356 2.058155-2.8343 2.502238 4.306307 3.342093 6.217404.731272 13.075729.415696 19.381686.342497z" fill="#f2f2f2" fill-rule="nonzero"/><path d="m80.2293932 107.719306s-8.5947246 16.997855-1.280065 16.997855c7.3146595 0 99.4793778.365546 102.0395078-4.386543 1.793661-3.329374.804717-15.181722.051788-21.9801795-.303589-2.7435444-2.699692-4.7714981-5.457147-4.6186832-19.932691 1.099614-94.3978428 5.1747542-94.0740187 4.6661569.6400326-1.0052494.1828678-.7310909.1828678-.7310909s-2.9258657 9.3213967-1.4629329 10.0524847z" fill="#3f3d56" fill-rule="nonzero"/><path d="m181.037552 98.3543152c-.304564-2.7458494-2.708332-4.7755024-5.474603-4.6225524-19.996408 1.10055-94.6996641 5.1791047-94.3748161 4.6700683.6420791-1.0060945.1834502-.7317055.1834502-.7317055s-.6551578 2.0827086-1.191672 4.3570944c.0760501-.007503.1328874.063885-.1147914.498464-.0220358.098073-.0437424.196168-.0651197.294286 2.9920101.294778 74.742937-3.6227972 94.278791-4.6979809 2.766271-.15295 5.170039 1.876703 5.474603 4.6225529.561603 5.058832 1.253701 12.912805.832471 17.979118.162442-.087995.299944-.215502.399731-.370677 1.799401-3.332171.807304-15.194488.051956-21.9986678z" fill="#000" fill-rule="nonzero" opacity=".1"/><path d="m89.84749 82.206357c-.9523674-.2889538-2.1577058-.662101-2.049073-1.2705854.0577155-.3232967.4946857-.5755157.8112987-.8465768.6103096-.5224919.7748775-1.2584441.1193201-1.7630752s-2.2345659-.5721084-2.8129305-.0381045c-.2975237.2747001-.2795975.6192127-.4332005.9294755-.4792123.9679343-2.4181245 1.3929332-4.0652353 1.7689811s-3.4899658 1.0756878-3.3351192 2.0770655c.1689135 1.0923674 2.7098501 2.0614262 1.6874807 2.9928597-.3707378.3377616-1.1506125.5262263-1.3165617.9126072-.1167618.2718517.117776.5483122.345449.7966401l1.6180615 1.7648538c.6437733.7021749 1.3070995 1.4662233 1.0914858 2.2478351-.4273727 1.5492514-3.901117 2.1419443-6.6544598 1.9678674-1.0082796-.0637476-2.1933539-.1510121-2.8862159.2684443-.5339635.3232581-.5330549.8267625-.3555741 1.2577332.456796 1.1092129 1.9181157 2.0698285 3.7883199 2.4902957-2.0961288.4094231-2.9193447 2.1351229-1.472124 3.0859983-.8281808.282078-1.7235428.307487-2.5666844.072838-.7157807.652377-.2949838 1.547661.6128334 2.118366.9078171.570705 2.1939022.891794 3.4391976 1.196662l-1.1654136 1.078833c.8433812.652084 2.6646368.422226 3.892809.010072 1.2281723-.412153 2.5608705-.965554 3.9369258-.749899 1.29055.202253 2.266692 1.054483 3.5807482.908553 1.0183565-.113092 1.502963-.761 1.8202368-1.320234l1.3487244-2.377306c1.9198664.297374 3.9384791-1.005024 3.1674654-2.0436317 2.1483723.2284159 4.2630123-1.1528395 3.5577491-2.323876 1.1441423.8736509 1.9497119 1.8885623 2.3438297 2.9529107.1760972.475572.2832868.978413.7629489 1.381405.6356343.46814 1.455833.615041 2.216846.397046-.391757.752148-.709074 1.629449.095995 2.267624.80507.638176 3.128213.457187 3.025654-.324809 1.227676.522308 2.603408 1.013171 4.137715 1.052137 1.534307.038965 3.213443-.539113 3.353135-1.404766 2.162239.706014 4.424282 1.066481 6.701084 1.067849.193689-.579307 1.546238-.766633 2.557479-.625053 1.011242.141581 1.949274.481748 2.990992.48233 1.041718.000581 2.16201-.620121 1.628685-1.126574 2.193565.454312 4.445323.566811 6.673941.333434 2.10228-.220949 4.094631-.746106 6.223467-.859361 2.159498-.130176 4.32167.207906 6.335532.990638.697902.289704 1.565341.654358 2.332059.427107.434898-.128901.6463-.407236.941738-.629141 1.271577-.955078 3.871696-.771933 5.877774-.396437s4.339595.82755 6.097295.163882c.663228-.250422 1.151914-.637385 1.857374-.847606 2.527244-.753111 5.552133 1.176593 8.234522.621375.873507-.180811 1.582243-.613399 2.507546-.666759 1.641253-.094649 2.725851 1.006634 4.321627 1.243518 1.655775.245777 3.450702-.751667 3.046822-1.69314 1.59143.034967 3.178202-.18338 4.699677-.646698l-.751667-1.339403c1.87304-.02987 3.250931-1.3592037 2.383103-2.2991258 1.878326-.3541574 3.36354-1.3072929 3.749611-2.4063136s-.342005-2.301211-1.838117-3.035087c-.882994-.4331286-2.042585-.7377149-2.547329-1.334158-.363488-.429526-.310512-.9292074-.451882-1.3986869-.309429-1.027591-1.650589-1.9349033-3.383056-2.2886814-.752442-.1536515-1.575803-.2120383-2.257085-.449304-.681282-.2372656-1.173355-.7512258-.780171-1.1454934.208102-.2086674.60891-.3315559.868069-.5210245 1.05085-.7682599-.750976-1.7406237-2.289191-2.1719305l3.67327-.1189452.78875-3.5405789c-1.453329 1.170221-5.22325.924092-6.167658-.4026723 1.179978.3833372 2.762573-.1068357 3.339495-.8042155.576921-.6973797.43512-1.5084052.28113-2.2734963-.029624-.386589-.262046-.7294088-.612207-.9029965-.359532-.1695475-.932338-.2403254-1.050281-.4966286-.120341-.261523.344758-.4927738.41376-.7601823.13246-.51334-1.059433-.7395821-1.864289-.9878373-1.898997-.5857397-2.81855-2.2317733-4.979179-2.1782657-2.143852.0530919-2.743059 1.6735801-2.744527 2.8881115-.001469 1.2145313-.726964 2.8387016-2.87251 2.8165499-.856762-.0088475-1.603765-.3138245-2.287837-.6059085l-6.14492-2.6237603c-.81192-.3739709-1.656627-.6737833-2.523607-.895705-1.239454-.286362-2.608761-.320187-3.946455-.3502822l-8.596081-.1933938c-.437826-.0340416-.878326.0034574-1.303856.1109949-.451537.1493584-.670961.4434367-.942944.6962667-1.196925 1.1126452-4.011145 1.5484247-6.042161.9356335-.538483-.1624717-1.021006-.3864513-1.591623-.5088765-1.797346-.3856268-3.683383.3278239-5.550811.5855762-3.061293.4225366-6.86546-.3047316-9.07239.9681911-.735765.4243787-1.12609 1.0046441-1.807925 1.4569578-.681835.4523138-1.912175.7590194-2.77209.417487.108016.8300312.206376 1.6961816-.361189 2.4639713-.567565.7677896-2.023247 1.3943983-3.453427 1.2007932-.75901-.1986409-.699174-.8302356-.3402-1.2576922.358975-.4274566.909545-.8642015.730578-1.3265212-.17755-.4586467-.990094-.7254033-1.597642-1.0451201-.607547-.3197168-1.012788-.9256684-.367495-1.2207417-.434839-.553289-1.997757-.4858252-2.685273-.021836-.687516.4639893-.756185 1.1174063-.831145 1.7214749-.074961.6040685-.238349 1.265781-1.034945 1.6700433-1.357542.6889479-3.9637568.3315105-4.8640804 1.22891-.2859988.2850741-.3028741.6289597-.4665082.9434248-.7303891 1.403632-3.8835329 1.7671162-6.4609298 1.8816569-.0543145.2920546-.0663831.5902741-.0358431.8856945.8816151-.3777834-.5875147-1.1466111-1.2264905-1.3404773z" fill="#61ab43" fill-rule="nonzero"/><path d="m179.54849 80.9093216c.148236.8463458.284703 1.7435148-.270574 2.5149603-.082421.1113974-.175652.2118286-.277916.299378.746939-.0278079 1.493886-.0555999 2.24084-.083376.253068-1.3055606.506121-2.6111019.75916-3.916624-.579502.5362786-1.541729.802865-2.534672.8277615.035416.1168115.063212.236436.083162.3579002z" fill="#000" fill-rule="nonzero" opacity=".1"/><path d="m180 84.6795951c-.085298-.3488548-.827059-.7028937-1.6574-.9559352-.730956.2692582-1.562341.3258444-2.3426.1594434.60605.6669337 2.462448.9590728 4 .7964918z" fill="#000" fill-rule="nonzero" opacity=".1"/><path d="m180.797572 87.7236599c-.020472.0918249-.040921.183636-.061349.2754332-1.245406.0403213-2.490814.0806588-3.736223.1210125 1.564591.4387977 3.397295 1.4280851 2.328423 2.209708-.2636.1927746-.671275.3178083-.882945.5301019-.399913.4011232.100583.9240401.793543 1.1654226.692959.2413825 1.530408.3007853 2.29576.457108 1.762151.3599407 3.126297 1.283031 3.441031 2.3285088.143794.4776507.089914.9860243.45963 1.4230217.513397.6068234 1.692847.9167187 2.590975 1.3573768.086518.0424536.16976.0868739.251171.1323065.811914-.4547276 1.395562-1.0411863 1.618449-1.6758276.392687-1.1181528-.347871-2.3412565-1.86962-3.0879019-.898128-.4406604-2.077578-.7505534-2.590975-1.3573768-.369716-.4369974-.315836-.945371-.45963-1.4230217-.314734-1.0454801-1.678875-1.9685704-3.441031-2.3285111-.240833-.0491857-.488862-.0886581-.737209-.1273609z" fill="#000" fill-rule="nonzero" opacity=".1"/><path d="m74.1219417 103.72366c.2598877-.660756.9237962-1.247573 1.8780583-1.47239-.9117206-.22609-1.7706764-.688722-2.5160641-1.355145-.390174.013687-.7797851-.044484-1.1551244-.172465-.6506443.715221-.2681445 1.696751.5570528 2.322435.3891577.281133.8038535.508452 1.2360774.677565z" fill="#000" fill-rule="nonzero" opacity=".1"/><path d="m79.7369329 86.3027328c.5220857-.1974827 1.0569486-.3585596 1.6008283-.4820982 1.6438974-.3831961 3.5790541-.8162889 4.0573417-1.8026488.1533135-.3161566.1354062-.6672427.4323652-.9471574.577238-.5441841 2.1531884-.4754085 2.8074622.0388136s.4900465 1.2642052-.1191042 1.7966374c-.3159769.2762227-.7521067.5332447-.8097215.8627041-.1084148.6200637 1.0945668 1.0003108 2.0450851 1.2947575.4474232.1455517.8663036.3688709 1.2378115.6599189.00793-.0657757.0158349-.1313847.0220933-.1964544 2.5723911-.1167278 5.7194143-.4871188 6.4483835-1.9174716.1633114-.3204435.1801493-.6708838.4655945-.9613792.8985711-.914471 3.4997265-.5502441 4.8546385-1.2523005.795022-.4119592.958109-1.0862549 1.032919-1.7018395s.143336-1.2814107.829543-1.7542314c.686166-.4728206 2.246059-.5415707 2.680028.0222516-.644029.3006849-.239567.9181769.366799 1.2439744.606366.3257976 1.417315.5976292 1.594524 1.0650125.178636.4711217-.370876.9161747-.729145 1.3517835-.35827.4356089-.418001 1.0792019.339517 1.2816168 1.427428.1972923 2.880264-.4412384 3.446723-1.223651.56646-.7824127.468311-1.6650328.360475-2.5108555.85825.3480237 2.086197.0354827 2.766702-.4254495.680505-.4609321 1.070069-1.0522258 1.804426-1.4846751 2.202631-1.2971625 5.999405-.5560471 9.054739-.9866168 1.8638-.2626699 3.746174-.989707 5.540023-.5967288.569487.1247461 1.051081.3529981 1.588511.5185577 2.027091.6244639 4.835819.1803831 6.030427-.953442.271458-.2576307.490447-.5573087.941097-.7095076.424704-.1095891.864352-.1478027 1.30133-.1131098 2.859796.0656862 5.719593.131377 8.579389.1970724 1.335068.0306681 2.701718.0651345 3.938773.356954.865294.2261474 1.708358.5316638 2.518702.9127465 2.044327.8912263 4.088655 1.7824619 6.132983 2.6737068.682734.2976387 1.428273.6084297 2.283383.6174387 2.141384.0225734 2.865453-1.6325107 2.866923-2.8701658.00147-1.2376552.599505-2.8889778 2.739176-2.9430825 2.156434-.0545168 3.074222 1.6228443 4.969513 2.2197281.803287.2529804 1.992881.4835287 1.860661 1.006644-.061357.2427608-.435395.4563466-.431587.6884897.533672-.1270062 1.01921-.4083488 1.397319-.809671.575791-.7106534.434282-1.5371202.28057-2.3167668-.029563-.3939502-.261537-.7432975-.611024-.9201837-.358833-.172777-.930518-.2448858-1.048243-.5060881-.120085-.2664939.344106-.5021508.412969-.7746421.132221-.5231154-1.057374-.7536613-1.86066-1.0066417-1.895292-.5968838-2.813073-2.2742519-4.969513-2.2197235-2.139669.0540978-2.737706 1.7054297-2.739176 2.9430779-.001471 1.2376482-.725539 2.8927322-2.866923 2.8701635-.855111-.009009-1.60065-.3198-2.283383-.6174364-2.044329-.8912403-4.088657-1.7824766-6.132984-2.6737091-.810344-.3810802-1.653409-.686598-2.518701-.9127512-1.237056-.2918148-2.603706-.326279-3.938773-.356947-2.859797-.0656954-5.719593-.131387-8.57939-.1970747-.436977-.0346898-.876624.0035221-1.301329.1131052-.45066.1522035-.66964.4518745-.941098.7095145-1.194607 1.1338205-4.003336 1.5779036-6.030427.953442-.537448-.1655573-1.019021-.3938139-1.58851-.51856-1.79385-.3929759-3.676223.3340589-5.540023.5967288-3.055334.4305696-6.852109-.3105457-9.054739.9866191-.734358.4324469-1.123919 1.0237592-1.804427 1.4846751-.680507.4609159-1.908453.7734685-2.766701.4254495.107835.8458227.206005 1.7284521-.360475 2.5108532-.56648.782401-2.019296 1.4209456-3.446723 1.2236532-.757511-.2024148-.69779-.8460379-.339518-1.2816167s.907782-.8806618.729146-1.3517835c-.177209-.4673763-.988179-.7392103-1.594524-1.0650125-.606346-.3258021-1.010829-.9432848-.3668-1.2439721-.433968-.5638223-1.993861-.4950722-2.680027-.0222516-.686207.4728207-.754713 1.1386722-.829543 1.7542314-.074831.6155592-.237897 1.289878-1.03292 1.7018372-1.354912.702061-3.9560554.3378319-4.8546379 1.2523005-.2854452.2905001-.3022831.640938-.4655945.9613815-.7289693 1.4303505-3.8759925 1.8007415-6.4483835 1.9174693-.0062584.0650697-.0141633.1306787-.0220934.1964567-.3715072-.2910495-.7903877-.5143696-1.2378114-.6599212-.9505184-.2944351-2.1534999-.6746939-2.0450851-1.2947552.0576148-.3294525.4937446-.5864744.8097215-.8627041.6091529-.5324345.773378-1.2823898.1191042-1.7966374s-2.2302219-.5829977-2.8074622-.0388159c-.296959.279917-.2790517.6309985-.4323653.9471597-.4782876.9863599-2.4134443 1.4194504-4.0573416 1.8026465-1.6438974.3831962-3.4831791 1.0961643-3.3286519 2.116618.1659243 1.0953889 2.6217736 2.0690848 1.727819 3.0043399z" fill="#000" fill-rule="nonzero" opacity=".1"/><path d="m75.8775602 98.1687346c-.4509253.0812177-.8817766.2459155-1.2693251.4852139.2456675.010517.4902682.0262156.725204.0408748 2.7412375.1709315 6.1997273-.4110749 6.6252349-1.9323951.2146738-.7675102-.4457467-1.5177849-1.0866843-2.2073127-.2576426-.2771519-.5152693-.5543038-.77288-.8314556-1.3411944.4450194-3.1738563.600288-4.7656706.5010263-1.0038388-.0626049-2.183744-.1482982-2.873557.2635953-.5316121.3174319-.5307007.8118468-.3539946 1.2350558.4547675 1.0892225 1.9096847 2.0325223 3.7716727 2.4453973z" fill="#000" fill-rule="nonzero" opacity=".1"/><ellipse cx="131.5" cy="72.72366" fill="#ea565c" fill-rule="nonzero" rx="27.5" ry="18"/><path d="m122.506525 71.5920906s-12.508152 1.2411823-8.829284-3.9008599c3.678868-5.1420421 8.277452-6.9151613 10.484774-5.4966682 2.207323 1.4184931 3.127039 5.3193552 2.759152 5.3193552s-5.702246-3.0143014-7.541681-.7092477c-1.839435 2.3050538 3.127039 4.7874206 3.127039 4.7874206z" fill="#fff" fill-rule="nonzero" opacity=".2"/><path d="m132.851271 71.7236599s10.444575 6.7975336 4.108375 8.3624383c-6.336201 1.5649047-11.075926.0482923-11.800113-2.3730538-.724186-2.4213462 1.235772-5.8997441 1.518019-5.6725802.282246.2271639 2.315081 5.7700643 5.301435 5.1860545 2.986354-.5840097.872284-5.5028588.872284-5.5028588z" fill="#fff" fill-rule="nonzero" opacity=".2"/><path d="m136 67.6004581s.800714-12.3594624 5.365-7.9107538 5.592992 9.2168856 3.806348 11.1190823c-1.786645 1.9021968-5.856702 2.1310779-5.796481 1.7737864.060222-.3572916 3.962256-5.0247296 1.947349-7.2037823-2.014906-2.1790527-5.322216 2.2216674-5.322216 2.2216674z" fill="#fff" fill-rule="nonzero" opacity=".2"/><ellipse cx="98.5" cy="70.72366" fill="#ea565c" fill-rule="nonzero" rx="27.5" ry="18"/><path d="m89.506525 69.5920906s-12.5081525 1.2411824-8.8292844-3.9008603 8.277455-6.915162 10.4847749-5.4966666c2.2073199 1.4184955 3.1270387 5.3193535 2.7591516 5.3193535-.367887 0-5.7022456-3.0142995-7.5416808-.7092455s3.1270387 4.7874189 3.1270387 4.7874189z" fill="#fff" fill-rule="nonzero" opacity=".2"/><path d="m99.8512724 70.7236599s10.4445716 6.7975362 4.1083746 8.3624388c-6.3361977 1.5649026-11.0759274.0482945-11.8001135-2.373054-.7241862-2.4213484 1.2357718-5.8997444 1.5180204-5.6725805.2822485.227164 2.3150788 5.7700669 5.3014347 5.1860571 2.9863554-.5840098.8722838-5.5028614.8722838-5.5028614z" fill="#fff" fill-rule="nonzero" opacity=".2"/><path d="m103 65.6004571s.800714-12.3594597 5.365-7.9107536c4.564286 4.4487062 5.592992 9.216883 3.806348 11.1190819-1.786645 1.902199-5.8567 2.1310778-5.796469 1.7737886.06023-.3572893 3.962253-5.0247317 1.947346-7.2037843-2.014906-2.1790526-5.322225 2.2216674-5.322225 2.2216674z" fill="#fff" fill-rule="nonzero" opacity=".2"/><path d="m112.779119 55.7236599c5.963119 3.3602231 9.753177 8.3919045 9.753177 14.0166587 0 10.1167785-12.256905 18.318063-27.3765873 18.318063-5.1807434 0-10.0251163-.9631907-14.1557087-2.636126 4.7622526 2.6835616 10.9099981 4.3014043 17.6234106 4.3014043 15.1196844 0 27.3765894-8.2012845 27.3765894-18.318063 0-6.6502719-5.29663-12.4725368-13.220881-15.681937z" fill="#000" fill-rule="nonzero" opacity=".1"/><path d="m145.779119 56.7236599c5.963119 3.3602255 9.753179 8.3919045 9.753179 14.0166587 0 10.1167785-12.256905 18.318063-27.376589 18.318063-5.180744 0-10.025117-.9631907-14.155709-2.636126 4.762253 2.6835616 10.91 4.3014043 17.623413 4.3014043 15.119673 0 27.376587-8.2012845 27.376587-18.318063 0-6.6502719-5.296618-12.4725344-13.220881-15.681937z" fill="#000" fill-rule="nonzero" opacity=".1"/><path d="m81.5312829 68.1393898s23.6552561-25.3519858 81.6014681-14.8805135c45.806919 8.277779 8.191682 22.5251996-9.578863 28.1313664-5.15573 1.6258499-10.496674 2.5892167-15.894674 2.8669841-20.047786 1.0342845-70.4741044 1.9588639-56.1279311-16.117837z" fill="#714b4f" fill-rule="nonzero"/><path d="m153.554441 74.8177903c-5.155871 1.6371066-10.496964 2.6071404-15.895114 2.886825-16.241272.8436834-52.4178812 1.6142648-57.9449738-7.8002859-6.9791883 15.2171257 39.0188938 14.3328873 57.9449738 13.3497331 5.398148-.2796859 10.739238-1.2497205 15.895107-2.8868273 13.025872-4.1376624 36.712397-12.9500391 30.39437-20.6435753-4.253954 6.0377181-20.438031 11.9315029-30.394363 15.0941304z" fill="#000" fill-rule="nonzero" opacity=".1"/><path d="m133 52.72366 6 13" opacity=".1" stroke="#000" stroke-width="2"/><path d="m113 57.72366 5 11" opacity=".1" stroke="#000" stroke-width="2"/><path d="m144 52.72366 9 13" opacity=".1" stroke="#000" stroke-width="2"/><path d="m112 68.72366 58-7" opacity=".1" stroke="#000" stroke-width="2"/><path d="m168 54.72366 4 6" opacity=".1" stroke="#000" stroke-width="2"/><path d="m101 61.72366 3 5" opacity=".1" stroke="#000" stroke-width="2"/><g fill-rule="nonzero"><path d="m109.593055 44.7249321s52.340965-.238306 52.821157-.7149156c.480193-.4766097 11.524616-.7291036 13.68548 2.3688602 2.160865 3.0979637 2.881155 4.5277903 0 5.0044022-2.881154.476612-97.7191381 49.3291001-97.7191381 49.3291001s-5.2821164.47661-2.641057-4.7660961c2.6410593-5.242706 33.8535581-51.2213508 33.8535581-51.2213508z" fill="#f6c964"/><path d="m132 66.6082755c0 2.0710678-9.402021 7.1153844-21 7.1153844-11.5979789 0-21-5.0443166-21-7.1153844 0-2.0710679 9.4020211-2.8846156 21-2.8846156 11.597993 0 21 .8135477 21 2.8846156z" fill="#61ab43"/><ellipse cx="111" cy="66.22366" fill="#61ab43" rx="21" ry="3.5"/><path d="m157 62.6082755c0 2.0710678-9.402021 7.1153844-21 7.1153844s-21-5.0443166-21-7.1153844c0-2.0710679 9.402019-2.8846156 21-2.8846156s21 .8135477 21 2.8846156z" fill="#61ab43"/><ellipse cx="136" cy="63.22366" fill="#61ab43" rx="21" ry="3.5"/><path d="m183 59.6082762c0 2.0710659-9.402021 7.1153837-21 7.1153837s-21-5.0443178-21-7.1153837 9.402019-2.8846163 21-2.8846163 21 .8135479 21 2.8846163z" fill="#61ab43"/><ellipse cx="162" cy="60.22366" fill="#61ab43" rx="21" ry="3.5"/><path d="m83.5236464 60.7097386s-8.7111706-1.4296361-4.2542915-8.577819 5.9559453-15.1611939 7.9008293-16.9514066c2.1743636-2.0014425 47.0534468-37.09259636 82.0164338 1.7377218 3.704063 4.162824 6.715087 8.9028251 8.916181 14.0359907.422925.9704637.889216 1.8414537 1.345026 2.300968 1.418097 1.4296362 2.633609 5.5143131 0 7.5566504s-80.2238103 10.0074667-95.9241786-.1021053z" fill="#3f3d56"/><path d="m125 31.2236599c-.588898.3071281-1.283179.4806981-2 .5-1.10457 0-2-.2238578-2-.5 0-.2761404.89543-.5 2-.5.716821.0193022 1.411102.1928728 2 .5z" fill="#f2f2f2"/><path d="m110 27.2236599c-.588898.3071277-1.283179.480698-2 .5-1.10457 0-2-.2238582-2-.5s.89543-.5 2-.5c.716821.0193019 1.411102.1928723 2 .5z" fill="#f2f2f2"/><path d="m150 33.5142566c-.536279.2619406-1.109712.2784876-1.651874.0476665-.826156-.401788-1.426048-1.0745608-1.339894-1.5026767.086154-.4281158.82572-.4494575 1.651874-.0476695.530118.2906717.995249.8123127 1.339894 1.5026797z" fill="#f2f2f2"/><path d="m123 22.5142557c-.536279.2619406-1.109711.2784887-1.651874.0476695-.826156-.401791-1.426048-1.0745635-1.339894-1.5026793.086154-.4281157.82572-.4494574 1.651874-.0476664.530118.2906698.99525.8123097 1.339894 1.5026762z" fill="#f2f2f2"/><path d="m152 26.5142566c-.536279.2619406-1.109712.2784876-1.651874.0476665-.826156-.401788-1.426047-1.0745608-1.339894-1.5026767.086152-.4281158.825718-.4494575 1.651874-.0476695.530118.2906717.995249.8123127 1.339894 1.5026797z" fill="#f2f2f2"/><path d="m146 26.2236599c-.588899.3071276-1.28318.4806979-2 .5-1.10457 0-2-.2238582-2-.5s.89543-.5 2-.5c.71682.0193021 1.411101.1928724 2 .5z" fill="#f2f2f2"/><path d="m129 22.2236599c-.588898.3071277-1.283179.480698-2 .5-1.104568 0-2-.2238563-2-.5s.895432-.5 2-.5c.716821.0193019 1.411102.1928723 2 .5z" fill="#f2f2f2"/><path d="m142 22.2236599c-.588898.3071277-1.283179.480698-2 .5-1.104568 0-2-.2238563-2-.5s.895432-.5 2-.5c.716821.0193019 1.411102.1928723 2 .5z" fill="#f2f2f2"/><path d="m137 30.2236599c-.588898.3071277-1.283179.480698-2 .5-1.10457 0-2-.2238563-2-.5s.89543-.5 2-.5c.716821.0193019 1.411102.1928723 2 .5z" fill="#f2f2f2"/><path d="m122 28.7236599c.16407-.7601283.522116-1.4519223 1.031416-1.992836.810768-.8012634 1.663501-1.20815 1.904632-.9088038.241131.2993463-.220647 1.1915698-1.031416 1.992836-.54301.4990639-1.204185.8145465-1.904632.9088038z" fill="#f2f2f2"/><path d="m113 26.7236599c.164069-.7601287.522115-1.4519228 1.031416-1.9928348.810766-.8012668 1.663501-1.2081511 1.904632-.9088046s-.220647 1.1915708-1.031416 1.9928349c-.543009.4990654-1.204185.8145485-1.904632.9088045z" fill="#f2f2f2"/><path d="m97 37.7236599c.1640695-.7601282.5221154-1.451922 1.0314146-1.9928348.8107676-.8012668 1.6634993-1.2081511 1.9046325-.9088046.2411329.2993465-.2206495 1.191568-1.0314146 1.9928349-.5430097.4990654-1.204185.8145484-1.9046325.9088045z" fill="#f2f2f2"/><path d="m132 25.7236599c.164068-.7601287.522115-1.4519228 1.031415-1.9928348.810766-.8012668 1.663498-1.2081511 1.904632-.9088046.241133.2993465-.220647 1.1915708-1.031416 1.9928349-.543009.499065-1.204184.814548-1.904631.9088045z" fill="#f2f2f2"/><path d="m129 32.7236599c.164069-.7601287.522115-1.4519228 1.031416-1.9928348.810768-.8012668 1.663501-1.2081511 1.904632-.9088046s-.220647 1.1915708-1.031416 1.9928349c-.543009.4990654-1.204185.8145485-1.904632.9088045z" fill="#f2f2f2"/><path d="m195.966444 112.72366s-2.742525.818759-4.113787 2.456274c0 0-2.468273 1.091676-3.976663.818756-1.50839-.272919-4.250912 2.456272-2.056893 3.275031 2.194019.818758 15.632395 3.002111 15.906646 2.319813.274253-.682298.274253-7.641737.274253-7.641737z" fill="#575a89"/><path d="m217.820614 110.72366s-2.550583 1.359505-3.615987 3.331693c0 0-2.234892 1.596925-3.761312 1.583554-1.526419-.013372-3.750518 3.356587-1.458192 3.819904 2.292326.463318 15.84893.321362 16.00138-.446446.152451-.767808-1.036886-8.09161-1.036886-8.09161z" fill="#575a89"/><ellipse cx="201" cy="10.22366" fill="#ffb9b9" rx="6" ry="6.5"/><path d="m205.607768 11.7236599s.708428 4.9354832 1.983587 5.5161292c.887195.4474335 1.700043 1.0352861 2.408645 1.7419354l-3.542125 1.7419354-6.942565-.4354857s.56674-3.1935478-.425055-4.7903205c-.991795-1.5967728 6.517513-3.7741938 6.517513-3.7741938z" fill="#ffb9b9"/><path d="m218.57522 33.7236599s3.205755 8.1043956 0 15.9340655c-3.205755 7.82967-4.599558 9.0659345-4.599558 9.0659345l-.975662-10.3021967 1.12188-1.0030533s.679352-3.125534.127189-4.9760764c-.552164-1.8505425.284119-7.6197731.284119-7.6197731z" fill="#ffb9b9"/><path d="m194.6139 51.9127757s-3.997422 9.2562613-3.583894 13.7441453c.413528 4.4878841 3.583894 23.4211452 3.583894 23.4211452s-.413526 24.4028698.827054 24.4028698 7.16779 2.243941 7.16779.701232 1.24058-38.5677539 1.24058-38.5677539 7.029947 16.2685794 7.719157 17.5307952c.689211 1.2622159 5.100159 21.0369567 6.616423 21.0369567 1.516265 0 6.202895-1.402464 5.789369-2.384189s-5.100158-22.8601585-7.719159-28.4700153-2.067634-26.7870542-2.067634-26.7870542l-4.410946-9.8172476z" fill="#3f3d56"/><path d="m198.68059 7.27393363s-3.793774-.27960667-4.064765-1.25822888c-.270991-.9786222-.812954-1.81743991-.54197-1.81743991.270985 0 .406476-.69901553.406476-.69901553s.270985-.13980218.406479 0c.135493.13980218.270985-.97861989.270985-.97861989s.135491-.41940885.270982-.13980218.135494.13980218.270985-.27960667c.135491-.41940886.812954-.69901553.812954-.69901553s2.57435.13980218 2.980828-.41940886c.406478-.55921103 5.01321-.13980449 5.961654.55921104.948443.69901553 5.148703 3.21547328 4.471243 5.31251986-.677461 2.09704659-3.11632 6.71054862-3.11632 7.40956412 0 .6990156-.948443.5592134-1.21943-.1398022-.270987-.6990155-2.438858-1.5378355-2.438858-1.9572397 0-.4194043-1.219431-4.33389539-1.896887-4.05429103s-1.490415 2.51645773-1.761398 2.09704893c-.270982-.41940889-.812958-2.93587357-.812958-2.93587357z" fill="#3f3d56"/><path d="m218 27.0492413s-5.722825-8.3720877-7.397795-8.7906987c-1.674969-.4186111-5.443665-1.5348827-5.443665-1.5348827s-3.768691.5581381-4.88533 1.1162785-5.304085 1.5348827-5.443665 3.2093016c-.13958 1.6744199 1.116649 17.7209314.418743 19.2558141s-3.070785 16.1860488-1.954132 15.9069786.279163-3.9069691 5.164502-4.0465122c4.88534-.1395432 7.537382-3.0697677 9.351939.4186041 1.814556 3.4883718 6.979056 6.1395353 6.979056 6.1395353.129805-1.1249339.316149-2.2426263.558325-3.3488378.418743-1.9534846-1.11665-6.6976734-1.11665-6.6976734s.139582-11.0232558.697905-12.2790706c.558323-1.2558147 3.070767-9.3488368 3.070767-9.3488368z" fill="#387ed1"/><path d="m215.36142 26.7236599 2.083605.2739731s-.138906 2.7397261.416723 3.561643c.555629.821917 1.527976 5.0684939.972347 5.2054815-.555629.1369877-5.556281.9589024-5.556281.9589024l-.277814-6.3013693z" fill="#387ed1"/><path d="m192.84773 30.7236599s-1.375437 9.1298418-2.063155 10.2535141c-.687718 1.1236724-4.12631 16.8550948-4.12631 16.8550948s-5.654458 8.0300279-2.903582 7.8895697c2.750875-.1404582 5.654455-7.3277323 5.654455-7.3277323s8.527707-15.8718806 8.527707-17.557388 2.063155-10.1130583 2.063155-10.1130583z" fill="#ffb9b9"/><path d="m196.948403 18.7236599-2.426264.9955537s-3.100228 11.6622233-2.426266 12.6577794c.673962.995556 8.761512-.4266663 8.896304-.8533348.134792-.4266686-1.482723-12.7999983-4.043774-12.7999983z" fill="#387ed1"/><path d="m22 94.7236599c0 13.8183591 8.4980464 25.0000001 19 25.0000001" fill="#46455b"/><path d="m41 119.72366c0-13.818359 9.3925799-25.0000001 21-25.0000001" fill="#387ed1"/><path d="m29 95.7236599c0 12.7128931 5.3671886 23.0000001 12 23.0000001" fill="#387ed1"/><path d="m41 119.72366c0-17.687501 10.7343749-32.0000001 24-32.0000001" fill="#46455b"/><path d="m37 119.153546s2.6874539-.081502 3.4973842-.649391c.8099302-.567889 4.1339815-1.245983 4.3349059-.335211s4.0387416 4.529764 1.0046195 4.553861c-3.034122.024097-7.049949-.465359-7.8583325-.950214s-.9785771-2.619045-.9785771-2.619045z" fill="#a8a8a8"/><path d="m45.8916762 122.36783c-3.0343342.026983-7.0504397-.520886-7.8588682-1.063604-.6156621-.413306-.8609984-1.896347-.9430842-2.580566-.0568482.002692-.0897238.003854-.0897238.003854s.1702284 2.38887.978657 2.931584c.8084286.542715 4.8245478 1.090587 7.8588705 1.063604.8758915-.007783 1.1784404-.351225 1.1618284-.85989-.1216827.307323-.4557276.499225-1.1076797.505018z" fill="#000" opacity=".2"/></g></g></svg>